<?xml version="1.0" encoding="utf-8"?>
<svg xmlns="http://www.w3.org/2000/svg" viewBox="0 0 50 50" width="50px" height="50px">
  <path d="M 38.75 0 L 11.25 0 C 5.036 0 0 5.036 0 11.25 L 0 38.75 C 0 44.964 5.036 50 11.25 50 L 38.75 50 C 44.964 50 50 44.964 50 38.75 L 50 11.25 C 50 5.036 44.964 0 38.75 0 Z M 41.488 20.318 C 42.3 19.969 43.263 19.921 44.075 20.166 C 44.413 20.271 44.713 20.411 45 20.585 L 45 22.123 C 44.1 21.505 43.063 21.33 42.263 21.761 C 41.413 22.228 40.912 23.205 40.938 24.23 C 40.925 25.36 41.3 26.408 42.088 26.896 C 42.787 27.374 43.888 27.374 45 27.199 L 45 28.48 C 44.563 28.62 44.1 28.701 43.625 28.748 C 42.838 28.806 41.963 28.689 41.188 28.27 C 40.4 27.862 39.825 27.153 39.5 26.441 C 39.188 25.708 39.075 24.963 39.063 24.251 C 39.025 22.739 39.838 21.039 41.488 20.318 Z M 36.25 16.263 C 36.94 16.263 37.5 16.823 37.5 17.513 C 37.5 18.203 36.94 18.763 36.25 18.763 C 35.56 18.763 35 18.203 35 17.513 C 35 16.823 35.56 16.263 36.25 16.263 Z M 37.188 20.013 L 37.188 28.763 L 35.313 28.763 L 35.313 20.013 L 37.188 20.013 Z M 27.5 26.469 C 28.3 26.795 29.275 27.134 30.038 27.206 C 30.8 27.291 31.638 27.194 32.125 26.928 C 32.362 26.783 32.413 26.58 32.413 26.355 C 32.413 26.13 32.368 26.002 32.259 25.834 C 32.06 25.526 31.513 25.294 30.65 25.088 C 30.225 24.966 29.763 24.845 29.25 24.568 C 28.737 24.338 27.696 23.502 27.899 22.079 C 28.008 21.318 28.796 20.572 29.9 20.225 C 31.186 19.819 32.588 20.02 33.75 20.576 L 33.75 22.125 C 32.713 21.593 31.475 21.324 30.425 21.674 C 30.113 21.77 29.7 21.988 29.7 22.379 C 29.7 23.318 30.787 23.495 31.2 23.629 C 31.625 23.761 32.088 23.883 32.588 24.136 C 33.088 24.379 34.09 24.984 34.09 26.365 C 34.09 27.688 33.438 28.174 32.9 28.391 C 31.788 28.875 30.8 28.79 29.838 28.658 C 29.025 28.513 28.238 28.27 27.5 27.811 C 27.5 27.811 27.5 26.469 27.5 26.469 Z M 19.063 20.015 L 20.938 20.013 L 20.941 23.038 C 20.959 24.025 20.956 25.101 20.945 26.016 C 20.901 26.505 21.448 27.075 22.165 27.163 C 22.548 27.205 22.832 27.174 23.272 26.988 C 23.533 26.885 23.798 26.798 24.063 26.706 L 24.063 20.013 L 25.938 20.014 L 25.938 28.536 L 24.063 28.536 L 24.063 28.241 C 24.011 28.269 23.963 28.299 23.912 28.325 C 23.436 28.61 22.673 28.807 22.02 28.754 C 21.343 28.71 20.66 28.472 20.104 28.021 C 19.551 27.576 19.134 26.877 19.08 26.11 C 19.046 25.01 19.055 24.068 19.066 23.039 L 19.063 20.015 Z M 5.313 20.013 L 7.188 20.013 L 7.188 20.873 C 7.65 20.705 8.109 20.53 8.574 20.371 C 9.243 20.134 10.081 20.181 10.74 20.548 C 11.013 20.694 11.251 20.9 11.461 21.134 C 12.164 20.874 12.865 20.612 13.573 20.37 C 14.241 20.133 15.08 20.18 15.739 20.546 C 16.404 20.904 16.921 21.557 17.105 22.319 C 17.154 22.509 17.175 22.701 17.186 22.895 L 17.191 23.291 L 17.199 24.072 L 17.191 25.635 L 17.188 28.76 L 15.313 28.76 L 15.305 22.705 C 15.253 22.174 14.656 21.709 14.031 21.879 C 13.394 22.048 12.751 22.197 12.11 22.353 C 12.153 22.531 12.175 22.711 12.186 22.894 L 12.191 23.29 L 12.199 24.071 L 12.191 25.634 L 12.188 28.759 L 10.313 28.759 L 10.305 22.704 C 10.253 22.171 9.656 21.708 9.031 21.877 C 8.42 22.04 7.803 22.184 7.188 22.333 L 7.188 28.758 L 5.313 28.758 C 5.313 28.758 5.313 20.013 5.313 20.013 Z M 42.21 36.165 C 39.442 38.128 36.35 39.421 33.104 40.261 C 29.86 41.09 26.483 41.404 23.121 41.173 C 19.761 40.948 16.48 40.128 13.388 38.93 C 10.305 37.693 7.391 36.101 4.816 34.016 C 4.683 33.908 4.661 33.71 4.77 33.576 C 4.866 33.457 5.031 33.428 5.161 33.497 L 5.179 33.508 C 7.99 35.029 10.995 36.194 14.013 37.119 C 17.054 37.984 20.149 38.603 23.263 38.729 C 26.369 38.838 29.509 38.595 32.574 37.957 C 35.626 37.328 38.705 36.413 41.536 35.109 L 41.585 35.086 C 41.899 34.943 42.269 35.079 42.414 35.393 C 42.544 35.671 42.451 35.995 42.21 36.165 Z M 43.603 39.865 C 43.255 40.128 42.908 40.04 43.081 39.603 C 43.603 38.203 44.731 35.226 44.21 34.526 C 43.603 33.739 40.476 34.176 39.088 34.351 C 38.654 34.351 38.654 34.001 39.001 33.739 C 40.216 32.864 41.866 32.514 43.256 32.514 C 44.645 32.514 45.861 32.776 46.121 33.214 C 46.554 33.738 45.946 37.851 43.603 39.865 Z"/>
</svg>