<?xml version="1.0" encoding="UTF-8"?>
<!-- Generated by Pixelmator Pro 3.6.18 -->
<svg width="800" height="800" viewBox="0 0 800 800" xmlns="http://www.w3.org/2000/svg">
    <path id="Path" fill="#000000" stroke="none" d="M 0 178 C -0.275 79.575012 79.575005 -0.275024 178 0 L 622 0 C 720.424988 -0.275024 800.275024 79.575012 800 178 L 800 622 C 800.275024 720.424988 720.424988 800.275024 622 800 L 178 800 C 79.575005 800.275024 -0.275 720.424988 0 622 L 0 178 Z M 725 342.291077 L 400.232147 544.742859 L 75 342.267883 L 75 397.100006 L 400.232147 600.549988 L 725 397.146454 L 725 342.291077 Z M 304.125 434.033936 C 320.885712 421.776794 341.174988 415.091064 361.975006 415.207123 C 397.214294 415.207123 428.553558 433.151794 449.516052 463.608917 L 495.016083 435.403564 C 475.307129 403.948212 440.067841 384.726807 400.232147 384.726807 L 400.232147 384.75 C 362.091064 384.773224 326.341064 403.205383 304.125 434.033936 Z M 400.208923 290.755341 C 326.86142 290.763123 262.497864 327.672089 225.498215 384.75 C 228.632141 381.732117 230.280365 379.967834 233.321426 377.808929 C 324.669647 301.851776 456.341064 319.100006 528.096436 414.719635 L 575.732117 384.262482 C 537.966553 328.925537 473.138763 290.763458 400.232147 290.755341 L 400.208923 290.755341 Z M 604.471436 365.899994 L 605.214294 366.712524 L 654.614319 336.255371 C 598.575012 250.223206 502.839294 198.525024 400.232147 198.525024 C 294.607147 198.525024 200.705353 252.591064 145.757141 336.255371 C 155.600006 325.019653 168.112503 311.857117 180.625 302.269653 C 314.455353 196.853577 503.605347 225.5 604.471436 365.899994 Z"/>
</svg>
