<?xml version="1.0" encoding="utf-8"?>
<svg fill="#000000" width="800px" height="800px" viewBox="0 0 32 32" xmlns="http://www.w3.org/2000/svg" xmlns:bx="https://boxy-svg.com"><defs><bx:export><bx:file format="svg" path="player-fm.svg"/></bx:export></defs><path d="M 7.12 0 C 3.183 -0.011 -0.011 3.183 0 7.12 L 0 24.88 C -0.011 28.817 3.183 32.011 7.12 32 L 24.88 32 C 28.817 32.011 32.011 28.817 32 24.88 L 32 7.12 C 32.011 3.183 28.817 -0.011 24.88 0 L 7.12 0 Z M 15.817 3.421 C 18.932 3.421 21.749 4.625 23.896 6.874 C 25.527 8.567 26.443 10.363 26.912 12.729 C 27.073 13.516 27.073 15.661 26.921 16.546 C 26.421 19.363 24.606 21.711 22.604 23.609 C 21.748 24.421 20.641 25.035 19.489 25.292 C 16.721 25.91 13.503 26.133 10.993 24.812 C 7.989 23.231 5.534 20.407 4.764 16.755 C 4.577 15.812 4.54 13.568 4.728 12.703 C 5.207 10.38 6.124 8.568 7.649 6.964 C 9.848 4.645 12.676 3.421 15.821 3.421 L 15.817 3.421 Z"/><path d="M 15.842 1.246 C 15.7 1.251 15.563 1.256 15.421 1.261 C 15.03 1.283 14.491 1.336 14.058 1.392 C 10.084 1.935 6.689 3.932 4.401 6.906 C 3.834 7.637 3.343 8.421 2.922 9.246 C 2.853 9.392 2.781 9.534 2.715 9.68 C 2.606 9.922 2.498 10.163 2.4 10.408 C 2.272 10.724 2.158 11.04 2.054 11.362 L 1.999 11.536 C 1.583 12.896 1.376 14.307 1.371 15.727 L 1.371 15.774 C 1.385 23.771 7.875 30.246 15.871 30.246 C 23.314 30.246 29.544 24.61 30.296 17.21 L 30.299 17.182 C 30.347 16.709 30.371 16.236 30.371 15.77 L 30.371 15.709 C 30.366 13.986 30.049 12.272 29.44 10.658 C 29.393 10.531 29.341 10.404 29.289 10.281 C 29.205 10.074 29.115 9.871 29.016 9.668 C 27.223 5.858 23.824 2.914 19.718 1.804 C 18.797 1.554 17.325 1.332 16.314 1.271 C 16.177 1.261 16.041 1.252 15.898 1.247 L 15.842 1.246 Z M 18.646 4.725 C 18.849 4.73 19.104 4.797 19.462 4.918 C 21.615 5.654 24.022 7.524 25.329 9.468 C 26.235 10.818 26.943 12.398 26.943 13.074 C 26.943 13.508 26.522 13.901 26.069 13.901 C 25.645 13.901 25.21 13.528 25.098 13.074 C 24.942 12.443 24.092 10.838 23.469 10.016 C 22.364 8.558 20.656 7.283 18.975 6.659 C 17.796 6.216 17.489 5.698 18.036 5.046 C 18.22 4.824 18.385 4.724 18.645 4.724 L 18.646 4.725 Z M 13.949 6.419 C 14.265 6.419 14.548 6.485 14.798 6.617 C 16.379 7.419 16.295 9.719 14.647 10.351 C 12.613 11.126 11.588 11.946 10.923 13.297 C 9.531 16.124 10.668 19.461 13.486 20.811 C 15.558 21.803 17.918 21.459 19.566 19.938 C 20.316 19.24 20.727 18.641 21.095 17.668 C 21.614 16.309 22.204 15.799 23.261 15.799 C 24.611 15.799 25.542 16.94 25.267 18.248 C 24.705 20.821 22.544 23.407 19.924 24.621 C 18.48 25.287 17.687 25.456 15.86 25.456 C 14.067 25.456 13.287 25.295 11.895 24.663 C 8.095 22.944 5.764 18.829 6.245 14.746 C 6.702 10.969 9.298 7.803 12.905 6.608 C 13.286 6.481 13.636 6.413 13.948 6.419 L 13.949 6.419 Z M 18.136 7.575 C 18.4 7.58 18.74 7.703 19.24 7.949 C 21.28 8.917 22.964 10.7 23.87 12.824 C 24.21 13.636 24.041 14.165 23.38 14.372 C 22.87 14.523 22.531 14.25 22.091 13.329 C 21.265 11.588 20.094 10.383 18.447 9.573 C 17.49 9.11 17.371 9.001 17.277 8.548 C 17.234 8.308 17.277 8.17 17.499 7.906 C 17.687 7.684 17.871 7.57 18.136 7.575 Z M 17.654 10.531 C 17.933 10.531 18.254 10.657 18.669 10.932 C 19.829 11.692 21.137 13.329 21.137 14.013 C 21.137 14.362 20.803 14.807 20.463 14.891 C 20.01 15.01 19.684 14.783 19.208 14.037 C 18.693 13.244 18.089 12.645 17.465 12.329 C 16.928 12.049 16.772 11.843 16.772 11.398 C 16.753 11.152 16.866 10.917 17.065 10.775 C 17.225 10.619 17.438 10.535 17.655 10.53 L 17.654 10.531 Z" style="stroke-width: 1;"/></svg>