<?xml version="1.0" encoding="utf-8"?>
<svg fill="#000000" width="800px" height="800px" viewBox="0 0 32 32" xmlns="http://www.w3.org/2000/svg" xmlns:bx="https://boxy-svg.com"><defs><bx:export><bx:file format="svg" path="spotify.svg"/></bx:export></defs><path d="M 7.12 0 C 3.183 -0.011 -0.011 3.183 0 7.12 L 0 24.88 C -0.011 28.817 3.183 32.011 7.12 32 L 24.88 32 C 28.817 32.011 32.011 28.817 32 24.88 L 32 7.12 C 32.011 3.183 28.817 -0.011 24.88 0 L 7.12 0 Z M 15.817 3.421 C 18.932 3.421 21.749 4.625 23.896 6.874 C 25.527 8.567 26.443 10.363 26.912 12.729 C 27.073 13.516 27.073 15.661 26.921 16.546 C 26.421 19.363 24.606 21.711 22.604 23.609 C 21.748 24.421 20.641 25.035 19.489 25.292 C 16.721 25.91 13.503 26.133 10.993 24.812 C 7.989 23.231 5.534 20.407 4.764 16.755 C 4.577 15.812 4.54 13.568 4.728 12.703 C 5.207 10.38 6.124 8.568 7.649 6.964 C 9.848 4.645 12.676 3.421 15.821 3.421 L 15.817 3.421 Z"/><path d="M 16 1.5 C 8.022 1.5 1.5 8.022 1.5 16 C 1.5 23.978 8.022 30.5 16 30.5 C 23.978 30.5 30.5 23.978 30.5 16 C 30.5 8.022 24.047 1.5 16 1.5 Z M 22.67 22.452 C 22.381 22.887 21.872 23.032 21.437 22.74 C 18.03 20.64 13.752 20.205 8.675 21.362 C 8.17 21.512 7.735 21.149 7.588 20.71 C 7.447 20.205 7.806 19.771 8.24 19.625 C 13.752 18.392 18.539 18.897 22.306 21.22 C 22.816 21.437 22.886 22.017 22.669 22.452 L 22.67 22.452 Z M 24.411 18.464 C 24.047 18.974 23.396 19.192 22.886 18.827 C 18.972 16.434 13.026 15.713 8.462 17.161 C 7.881 17.302 7.225 17.015 7.082 16.433 C 6.937 15.853 7.225 15.202 7.806 15.056 C 13.102 13.46 19.624 14.262 24.118 17.014 C 24.557 17.232 24.774 17.957 24.411 18.463 L 24.411 18.464 Z M 24.558 14.405 C 19.913 11.647 12.157 11.36 7.735 12.737 C 7.009 12.955 6.286 12.521 6.067 11.865 C 5.852 11.142 6.286 10.416 6.937 10.198 C 12.088 8.675 20.567 8.967 25.936 12.157 C 26.588 12.52 26.802 13.389 26.441 14.041 C 26.077 14.551 25.207 14.767 24.557 14.404 L 24.558 14.405 Z" style="stroke-width: 1;"/></svg>